<?xml version="1.0" encoding="UTF-8" standalone="no"?>
<!DOCTYPE svg PUBLIC "-//W3C//DTD SVG 1.1//EN" "http://www.w3.org/Graphics/SVG/1.1/DTD/svg11.dtd">
<!-- Created with Vectornator (http://vectornator.io/) -->
<svg stroke-miterlimit="10" style="fill-rule:nonzero;clip-rule:evenodd;stroke-linecap:round;stroke-linejoin:round;" version="1.1" viewBox="0 0 800 800" xml:space="preserve" xmlns="http://www.w3.org/2000/svg" xmlns:xlink="http://www.w3.org/1999/xlink">
<defs>
<radialGradient cx="400" cy="400" gradientTransform="matrix(1 0 0 1 0 0)" gradientUnits="userSpaceOnUse" id="RadialGradient" r="230">
<stop offset="0" stop-color="#ffffff"/>
<stop offset="1" stop-color="#00eeff"/>
</radialGradient>
<radialGradient cx="400" cy="400" gradientTransform="matrix(1 0 0 1 0 0)" gradientUnits="userSpaceOnUse" id="RadialGradient_2" r="551">
<stop offset="0" stop-color="#ffffff"/>
<stop offset="1" stop-color="#00ffff"/>
</radialGradient>
<clipPath id="TextBounds">
<rect height="57.1334" transform="matrix(1 -0 -0 1 -0.722273 -42.2787)" width="796.736" x="0.722273" y="42.2787"/>
</clipPath>
<clipPath id="TextBounds_2">
<rect height="57.1334" transform="matrix(1 -0 -0 1 -1.63637 -89.2916)" width="796.736" x="1.63637" y="89.2916"/>
</clipPath>
<clipPath id="TextBounds_3">
<rect height="57.1334" transform="matrix(1 -0 -0 1 -0.168591 -137.647)" width="796.736" x="0.168591" y="137.647"/>
</clipPath>
<clipPath id="TextBounds_4">
<rect height="57.1334" transform="matrix(1 -0 -0 1 -2.70824 -204.539)" width="796.736" x="2.70824" y="204.539"/>
</clipPath>
<clipPath id="TextBounds_5">
<rect height="57.1334" transform="matrix(1 -0 -0 1 -3.59365 -244.644)" width="796.736" x="3.59365" y="244.644"/>
</clipPath>
<clipPath id="TextBounds_6">
<rect height="46.3086" transform="matrix(1 -0 -0 1 -44.7604 -347.213)" width="727.292" x="44.7604" y="347.213"/>
</clipPath>
<clipPath id="TextBounds_7">
<rect height="46.3086" transform="matrix(1 -0 -0 1 -45.0721 -411.787)" width="727.292" x="45.0721" y="411.787"/>
</clipPath>
<clipPath id="TextBounds_8">
<rect height="57.1334" transform="matrix(1 -0 -0 1 -50.2193 -586.498)" width="751.159" x="50.2193" y="586.498"/>
</clipPath>
<clipPath id="TextBounds_9">
<rect height="57.1334" transform="matrix(1 -0 -0 1 -50.4114 -564.765)" width="748.649" x="50.4114" y="564.765"/>
</clipPath>
<clipPath id="TextBounds_10">
<rect height="57.1334" transform="matrix(1 -0 -0 1 -44.6703 -649.476)" width="748.649" x="44.6703" y="649.476"/>
</clipPath>
<clipPath id="TextBounds_11">
<rect height="57.1334" transform="matrix(1 -0 -0 1 -47.189 -673.213)" width="751.159" x="47.189" y="673.213"/>
</clipPath>
</defs>
<clipPath id="ArtboardFrame">
<rect height="800" width="800" x="0" y="0"/>
</clipPath>
<g clip-path="url(#ArtboardFrame)" id="Untitled">
<path d="M0 0L800 0L800 0L800 800L800 800L0 800L0 800L0 0L0 0Z" fill="#ffffff" fill-rule="evenodd" opacity="1" stroke="none"/>
<path d="M0 0L800 0L800 0L800 800L800 800L0 800L0 800L0 0L0 0Z" fill="url(#RadialGradient)" fill-rule="evenodd" opacity="1" stroke="none"/>
<path d="M998.7 439.2C1000.4 412.7 1000.4 386.5 998.8 360.7L401 399.9L401 399.8L988.6 282.9C983.5 257 976.7 231.7 968.3 207.1L400.9 399.7L400.9 399.6L938.2 134.6C926.6 111.1 913.4 88.4 898.9 66.7L400.8 399.5C400.8 399.5 400.8 399.4 400.7 399.4L851.1 4.4C833.8-15.3 815.3-33.8 795.6-51.1L400.6 399.3C400.6 399.3 400.5 399.3 400.5 399.2L733.4-99C711.7-113.5 689-126.6 665.4-138.3L400.4 399.1L400.3 399.1L592.9-168.3C568.3-176.6 543-183.4 517.1-188.5L400.2 399L400.1 399L439.3-198.7C412.8-200.4 386.6-200.4 360.8-198.8L399.9 399L399.8 399L282.9-188.6C257-183.5 231.7-176.7 207.1-168.3L399.7 399.1L399.6 399.1L134.6-138.2C111.1-126.6 88.4-113.4 66.7-98.9L399.5 399.2C399.5 399.2 399.4 399.2 399.4 399.3L4.4-51.1C-15.3-33.9-33.8-15.3-51.1 4.4L399.3 399.4C399.3 399.4 399.3 399.5 399.2 399.5L-99 66.6C-113.5 88.3-126.6 111-138.3 134.6L399.1 399.6L399.1 399.7L-168.3 207.1C-176.6 231.7-183.4 257-188.5 282.9L399 399.8L399 399.9L-198.7 360.7C-200.4 387.2-200.4 413.4-198.8 439.2L399 400.1L399 400.2L-188.6 517.1C-183.5 543-176.7 568.3-168.3 592.9L399.1 400.3L399.1 400.4L-138.2 665.4C-126.6 688.9-113.4 711.6-98.8999 733.3L399.2 400.5C399.2 400.5 399.2 400.6 399.3 400.6L-51.0999 795.6C-33.7999 815.3-15.2999 833.8 4.40007 851.1L399.4 400.7C399.4 400.7 399.5 400.7 399.5 400.8L66.6 899C88.3 913.5 111 926.6 134.6 938.3L399.6 400.9L399.7 400.9L207.1 968.3C231.7 976.6 257 983.4 282.9 988.5L399.8 401L399.9 401L360.7 998.7C387.2 1000.4 413.4 1000.4 439.2 998.8L400.1 401L400.2 401L517.1 988.6C543 983.5 568.3 976.7 592.9 968.3L400.3 400.9L400.4 400.9L665.4 938.2C688.9 926.6 711.6 913.4 733.3 898.9L400.5 400.8C400.5 400.8 400.6 400.8 400.6 400.7L795.6 851.1C815.3 833.8 833.8 815.3 851.1 795.6L400.7 400.6C400.7 400.6 400.7 400.5 400.8 400.5L899 733.4C913.5 711.7 926.6 689 938.3 665.4L400.9 400.4L400.9 400.3L968.3 592.9C976.6 568.3 983.4 543 988.5 517.1L401 400.2L401 400.1L998.7 439.2Z" fill="url(#RadialGradient_2)" fill-rule="evenodd" opacity="1" stroke="none"/>
<path d="M58.5067 316.954L757.39 316.954C766.919 316.954 774.643 324.828 774.643 334.541L774.643 478.406C774.643 488.12 766.919 495.994 757.39 495.994L58.5067 495.994C48.9777 495.994 41.2529 488.12 41.2529 478.406L41.2529 334.541C41.2529 324.828 48.9777 316.954 58.5067 316.954Z" fill="#000000" fill-opacity="0.7" fill-rule="evenodd" opacity="1" stroke="none"/>
<text clip-path="url(#TextBounds)" fill="#11055c" font-family="Arial-BoldMT" font-size="40" opacity="1" stroke="none" text-anchor="middle" transform="matrix(1 0 0 1 0.722273 42.2787)" x="0" y="0">
<tspan x="398.368" y="36">Chanceroom Sang</tspan>
</text>
<text clip-path="url(#TextBounds_2)" fill="#11055c" font-family="Arial-BoldMT" font-size="30" opacity="1" stroke="none" text-anchor="middle" transform="matrix(1 0 0 1 1.63637 89.2916)" x="0" y="0">
<tspan x="398.368" y="27">V1</tspan>
</text>
<text clip-path="url(#TextBounds_4)" fill="#11055c" font-family="Arial-BoldMT" font-size="25" opacity="1" stroke="none" text-anchor="middle" transform="matrix(1 0 0 1 2.70824 204.539)" x="0" y="0">
<tspan x="398.368" y="23">CRYPTO PUNK : 123</tspan>
</text>
<text clip-path="url(#TextBounds_5)" fill="#11055c" font-family="Arial-BoldMT" font-size="15" opacity="1" stroke="none" text-anchor="middle" transform="matrix(1 0 0 1 3.59365 244.644)" x="0" y="0">
<tspan x="400.452" y="14">Addr: 0xfe6754537CfE0aD4Eb9F3996Ae9c36A717CBaaFbå </tspan>
</text>
<text clip-path="url(#TextBounds_6)" fill="#ffffff" font-family="Arial-BoldMT" font-size="40" opacity="1" stroke="none" text-anchor="middle" transform="matrix(1 0 0 1 44.7604 347.213)" x="0" y="0">
<tspan x="363.646" y="36">Status 1sdasdasdas</tspan>
</text>
<text clip-path="url(#TextBounds_7)" fill="#e1e1e1" font-family="Arial-BoldMT" font-size="40" opacity="1" stroke="none" text-anchor="middle" transform="matrix(1 0 0 1 45.0721 411.787)" x="0" y="0">
<tspan x="363.646" y="36">Status 2</tspan>
</text>
<text clip-path="url(#TextBounds_8)" fill="#11055c" font-family="ArialMT" font-size="15" opacity="1" stroke="none" text-anchor="middle" transform="matrix(1 0 0 1 50.2193 586.498)" x="0" y="0">
<tspan x="205.148" y="14">Addr: 0xfe6754537CfE0aD4Eb9F3996Ae9c36A717CBaaFbå </tspan>
</text>
<text clip-path="url(#TextBounds_9)" fill="#11055c" font-family="Arial-BoldMT" font-size="15" opacity="1" stroke="none" text-anchor="start" transform="matrix(1 0 0 1 50.4114 564.765)" x="0" y="0">
<tspan x="0" y="14">Black Template</tspan>
</text>
<text clip-path="url(#TextBounds_10)" fill="#11055c" font-family="Arial-BoldMT" font-size="15" opacity="1" stroke="none" text-anchor="start" transform="matrix(1 0 0 1 44.6703 649.476)" x="0" y="0">
<tspan x="0" y="14">Chanceroom Hall</tspan>
</text>
<text clip-path="url(#TextBounds_11)" fill="#11055c" font-family="ArialMT" font-size="15" opacity="1" stroke="none" text-anchor="middle" transform="matrix(1 0 0 1 47.189 673.213)" x="0" y="0">
<tspan x="205.148" y="14">Addr: 0xfe6754537CfE0aD4Eb9F3996Ae9c36A717CBaaFbå </tspan>
</text>
</g>
</svg>